<?xml version="1.0" standalone="no"?><!DOCTYPE svg PUBLIC "-//W3C//DTD SVG 1.1//EN" "http://www.w3.org/Graphics/SVG/1.1/DTD/svg11.dtd"><svg t="1521535134692" class="icon" style="" viewBox="0 0 1024 1024" version="1.1" xmlns="http://www.w3.org/2000/svg" p-id="3438" xmlns:xlink="http://www.w3.org/1999/xlink" width="32" height="32"><defs><style type="text/css"></style></defs><path d="M834.939259 375.561481c-17.635556-41.718519-42.951111-79.265185-75.093333-111.407407-32.142222-32.142222-69.688889-57.457778-111.407407-75.093333-43.235556-18.299259-89.125926-27.591111-136.438519-27.591111-47.312593 0-93.202963 9.291852-136.438519 27.591111-41.718519 17.635556-79.265185 42.951111-111.407407 75.093333-32.142222 32.142222-57.457778 69.688889-75.093333 111.407407-18.299259 43.235556-27.591111 89.125926-27.591111 136.438519 0 47.312593 9.291852 93.202963 27.591111 136.438519 17.635556 41.718519 42.951111 79.265185 75.093333 111.407407 32.142222 32.142222 69.688889 57.457778 111.407407 75.093333 43.235556 18.299259 89.125926 27.591111 136.438519 27.591111 47.312593 0 93.202963-9.291852 136.438519-27.591111 41.718519-17.635556 79.265185-42.951111 111.407407-75.093333 32.142222-32.142222 57.457778-69.688889 75.093333-111.407407 18.299259-43.235556 27.591111-89.125926 27.591111-136.438519C862.53037 464.687407 853.238519 418.797037 834.939259 375.561481zM513.517037 830.198519c-179.579259 0.853333-320.568889-140.231111-319.715556-319.715556 0.853333-177.872593 140.136296-316.586667 318.198519-316.586667 178.536296 0 317.25037 139.567407 317.25037 318.198519C829.25037 690.062222 691.38963 829.345185 513.517037 830.198519z" p-id="3439" fill="#2c2c2c"></path><path d="M694.802963 603.401481 329.197037 603.401481c-9.102222 0-16.402963 8.533333-16.402963 18.962963 0 10.42963 7.395556 18.962963 16.402963 18.962963l365.605926 0c9.102222 0 16.402963-8.533333 16.402963-18.962963C711.205926 611.84 703.905185 603.401481 694.802963 603.401481z" p-id="3440" fill="#2c2c2c"></path><path d="M694.802963 497.114074 329.197037 497.114074c-9.102222 0-16.402963 8.533333-16.402963 18.962963 0 10.42963 7.395556 18.962963 16.402963 18.962963l365.605926 0c9.102222 0 16.402963-8.533333 16.402963-18.962963C711.205926 505.647407 703.905185 497.114074 694.802963 497.114074z" p-id="3441" fill="#2c2c2c"></path><path d="M694.802963 382.672593 329.197037 382.672593c-9.102222 0-16.402963 8.533333-16.402963 18.962963 0 10.42963 7.395556 18.962963 16.402963 18.962963l365.605926 0c9.102222 0 16.402963-8.533333 16.402963-18.962963C711.205926 391.205926 703.905185 382.672593 694.802963 382.672593z" p-id="3442" fill="#2c2c2c"></path></svg>