<?xml version="1.0" standalone="no"?><!DOCTYPE svg PUBLIC "-//W3C//DTD SVG 1.1//EN" "http://www.w3.org/Graphics/SVG/1.1/DTD/svg11.dtd"><svg t="1521448775330" class="icon" style="" viewBox="0 0 1024 1024" version="1.1" xmlns="http://www.w3.org/2000/svg" p-id="1524" xmlns:xlink="http://www.w3.org/1999/xlink" width="16" height="16"><defs><style type="text/css"></style></defs><path d="M470.11328 676.89984c-55.23456 0-107.1616-21.50912-146.22208-60.5696-80.62464-80.62464-80.62464-211.80928 0-292.43392 39.06048-39.06048 90.99264-60.5696 146.2272-60.5696s107.1616 21.50912 146.22208 60.5696c39.05536 39.05536 60.56448 90.9824 60.56448 146.22208-0.00512 55.23456-21.50912 107.1616-60.56448 146.21696-39.06048 39.05536-90.99264 60.56448-146.2272 60.56448z m0.00512-331.65312a124.06272 124.06272 0 0 0-88.30464 36.57728c-48.68096 48.68096-48.68096 127.8976 0 176.57856 23.58784 23.58272 54.94272 36.57728 88.29952 36.57728 33.3568 0 64.71168-12.98944 88.29952-36.57728 23.5776-23.58272 36.57216-54.9376 36.57216-88.2944s-12.98944-64.71168-36.57216-88.2944a124.07296 124.07296 0 0 0-88.2944-36.56704z" p-id="1525" fill="#13227a"></path><path d="M771.63008 933.1968a40.82688 40.82688 0 0 1-28.96384-11.99616l-120.6016-120.60672a373.32992 373.32992 0 0 1-158.72 35.39456c-99.50208 0-193.0496-38.73792-263.40352-109.09184-145.28-145.29024-145.28-381.68064 0-526.96064 70.3744-70.37952 163.94752-109.1328 263.4752-109.1328 99.52256 0 193.1008 38.7584 263.48032 109.1328 111.75424 111.75424 140.08832 281.27744 73.71264 422.13888l120.59136 120.59136a40.98048 40.98048 0 0 1 0 57.92768l-120.61184 120.6016a40.82176 40.82176 0 0 1-28.95872 12.00128z m-141.88544-223.79008c10.5984 0 21.08416 4.10624 28.9792 11.99616l112.90624 112.91136 62.67904-62.67392-112.91136-112.91136a40.97536 40.97536 0 0 1-6.46144-49.53088c66.03264-113.75104 47.1296-258.2272-45.97248-351.32928-54.90688-54.90176-127.90272-85.14048-205.54752-85.14048-77.64992 0-150.64576 30.23872-205.54752 85.14048-113.33632 113.33632-113.33632 297.75872 0 411.1104 54.88128 54.87616 127.85664 85.0944 205.47584 85.0944 51.31776 0 101.75488-13.53216 145.84832-39.13216a40.89344 40.89344 0 0 1 20.55168-5.53472z" p-id="1526" fill="#13227a"></path></svg>