<?xml version="1.0" standalone="no"?><!DOCTYPE svg PUBLIC "-//W3C//DTD SVG 1.1//EN" "http://www.w3.org/Graphics/SVG/1.1/DTD/svg11.dtd"><svg t="1521444483834" class="icon" style="" viewBox="0 0 1024 1024" version="1.1" xmlns="http://www.w3.org/2000/svg" p-id="1075" xmlns:xlink="http://www.w3.org/1999/xlink" width="200" height="200"><defs><style type="text/css"></style></defs><path d="M790.755556 796.444444H381.155556c-85.333333 0-153.6-62.577778-170.666667-142.222222L130.844444 159.288889c-5.688889-22.755556-28.444444-45.511111-56.888888-45.511111H56.888889c-34.133333 0-56.888889-22.755556-56.888889-56.888889s22.755556-56.888889 56.888889-56.888889h17.066667c85.333333 0 153.6 62.577778 170.666666 142.222222l79.644445 494.933334c5.688889 28.444444 28.444444 45.511111 56.888889 45.511111h409.6c28.444444 0 51.2-17.066667 56.888888-45.511111l62.577778-284.444445c5.688889-17.066667 0-34.133333-11.377778-45.511111-11.377778-17.066667-28.444444-22.755556-45.511111-22.755556H557.511111c-11.377778 0-17.066667 5.688889-22.755555 11.377778 0 5.688889-5.688889 11.377778-5.688889 22.755556l22.755555 113.777778c5.688889 11.377778 17.066667 22.755556 28.444445 22.755555H682.666667c34.133333 0 56.888889 22.755556 56.888889 56.888889s-22.755556 56.888889-56.888889 56.888889h-102.4C512 568.888889 455.111111 523.377778 443.733333 455.111111l-22.755555-113.777778c-5.688889-39.822222 0-85.333333 28.444444-119.466666 28.444444-34.133333 68.266667-51.2 108.088889-51.2H853.333333c51.2 0 102.4 22.755556 130.844445 62.577777 34.133333 39.822222 45.511111 91.022222 34.133333 142.222223l-62.577778 284.444444c-17.066667 79.644444-85.333333 136.533333-164.977777 136.533333z" p-id="1076" fill="#1296db"></path><path d="M369.777778 938.666667m-85.333334 0a85.333333 85.333333 0 1 0 170.666667 0 85.333333 85.333333 0 1 0-170.666667 0Z" p-id="1077" fill="#1296db"></path><path d="M768 938.666667m-85.333333 0a85.333333 85.333333 0 1 0 170.666666 0 85.333333 85.333333 0 1 0-170.666666 0Z" p-id="1078" fill="#1296db"></path></svg>