<?xml version="1.0" standalone="no"?><!DOCTYPE svg PUBLIC "-//W3C//DTD SVG 1.1//EN" "http://www.w3.org/Graphics/SVG/1.1/DTD/svg11.dtd"><svg t="1521448279216" class="icon" style="" viewBox="0 0 1024 1024" version="1.1" xmlns="http://www.w3.org/2000/svg" p-id="3200" xmlns:xlink="http://www.w3.org/1999/xlink" width="200" height="200"><defs><style type="text/css"></style></defs><path d="M298.666667 199.111111c-15.644444 0-28.444444 12.8-28.444445 27.733333V796.444444c0 15.644444 12.8 27.733333 28.444445 27.733334h291.555555l135.111111-97.422222V296.533333L590.222222 199.111111H298.666667z" fill="#FFC44F" p-id="3201"></path><path d="M241.777778 704H92.444444c-15.644444 0-28.444444-12.8-28.444444-28.444444V348.444444c0-15.644444 12.8-28.444444 28.444444-28.444444h149.333334c15.644444 0 28.444444 12.8 28.444444 28.444444v327.111112c0 15.644444-12.8 28.444444-28.444444 28.444444z" fill="#FFFFFF" p-id="3202"></path><path d="M952.888889 625.777778h-113.777778c-7.822222 0-14.222222-6.4-14.222222-14.222222V412.444444c0-7.822222 6.4-14.222222 14.222222-14.222222h113.777778c7.822222 0 14.222222 6.4 14.222222 14.222222v199.111112c0 7.822222-6.4 14.222222-14.222222 14.222222z" fill="#5CBAEA" p-id="3203"></path><path d="M213.333333 419.555556v28.444444c0 7.822222-6.4 14.222222-14.222222 14.222222h-28.444444c-7.822222 0-14.222222-6.4-14.222223-14.222222v-28.444444c0-7.822222 6.4-14.222222 14.222223-14.222223h28.444444c7.822222 0 14.222222 6.4 14.222222 14.222223zM213.333333 576v28.444444c0 7.822222-6.4 14.222222-14.222222 14.222223h-28.444444c-7.822222 0-14.222222-6.4-14.222223-14.222223v-28.444444c0-7.822222 6.4-14.222222 14.222223-14.222222h28.444444c7.822222 0 14.222222 6.4 14.222222 14.222222zM455.111111 618.666667c-15.644444 0-28.444444-12.8-28.444444-28.444445V419.555556c0-15.644444 12.8-28.444444 28.444444-28.444445s28.444444 12.8 28.444445 28.444445v170.666666c0 15.644444-12.8 28.444444-28.444445 28.444445zM568.888889 618.666667c-15.644444 0-28.444444-12.8-28.444445-28.444445V419.555556c0-15.644444 12.8-28.444444 28.444445-28.444445s28.444444 12.8 28.444444 28.444445v170.666666c0 15.644444-12.8 28.444444-28.444444 28.444445z" fill="#194F82" p-id="3204"></path><path d="M796.444444 725.333333h-56.888888c-7.822222 0-14.222222-6.4-14.222223-14.222222V312.888889c0-7.822222 6.4-14.222222 14.222223-14.222222h56.888888c7.822222 0 14.222222 6.4 14.222223 14.222222v398.222222c0 7.822222-6.4 14.222222-14.222223 14.222222z" fill="#FFC44F" p-id="3205"></path><path d="M938.666667 654.222222h-99.555556c-23.466667 0-42.666667-19.2-42.666667-42.666666V412.444444c0-23.466667 19.2-42.666667 42.666667-42.666666h99.555556c23.466667 0 42.666667 19.2 42.666666 42.666666v199.111112c0 23.466667-19.2 42.666667-42.666666 42.666666z m-85.333334-56.888889h71.111111V426.666667h-71.111111v170.666666zM590.222222 853.333333H298.666667c-31.288889 0-56.888889-24.888889-56.888889-56.177777V226.844444c0-31.288889 25.6-56.177778 56.888889-56.177777h291.555555c5.688889 0 12.088889 2.133333 16.355556 5.688889l135.111111 97.422222c7.111111 5.688889 12.088889 14.222222 12.088889 22.755555v430.933334c0 9.244444-4.266667 17.777778-12.088889 22.755555l-135.111111 97.422222c-4.266667 3.555556-10.666667 5.688889-16.355556 5.688889z m-291.555555-56.888889h282.311111L696.888889 712.533333V310.755556L580.977778 227.555556H298.666667v568.888888z" fill="#194F82" p-id="3206"></path><path d="M270.222222 732.444444H80.355556c-24.888889 0-44.8-19.2-44.8-42.666666V334.222222c0-23.466667 19.911111-42.666667 44.8-42.666666H270.222222c15.644444 0 28.444444 12.8 28.444445 28.444444v384c0 15.644444-12.8 28.444444-28.444445 28.444444z m-177.777778-56.888888h149.333334V348.444444H92.444444v327.111112zM804.977778 752.355556H725.333333c-15.644444 0-28.444444-12.8-28.444444-28.444445v-426.666667c0-15.644444 12.8-28.444444 28.444444-28.444444h79.644445c27.022222 0 48.355556 18.488889 48.355555 42.666667v398.222222c0 24.177778-21.333333 42.666667-48.355555 42.666667z m-51.2-56.888889h42.666666v-369.777778h-42.666666v369.777778z" fill="#194F82" p-id="3207"></path></svg>